<?xml version="1.0" encoding="UTF-8"?>
<svg width="80px" height="80px" viewBox="0 0 64 64" version="1.1" xmlns="http://www.w3.org/2000/svg" xmlns:xlink="http://www.w3.org/1999/xlink">
    <g id="Page-1" stroke="none" stroke-width="1" fill="none" fill-rule="evenodd">
        <g id="logo" fill="#000000" fill-rule="nonzero">
            <path d="M32,0 C14.2628571,0 0,14.2628571 0,32 C0,49.7371429 14.2628571,64 32,64 C49.7371429,64 64,49.7371429 64,32 C64,14.2628571 49.7371429,0 32,0 Z M32,2.74285714 C48.0914286,2.74285714 61.2571429,15.7257143 61.2571429,32 C61.2571429,34.3771429 60.8914286,36.7542857 60.3428571,39.1314286 L34.56,7.86285714 L17.0057143,38.9485714 L14.2628571,36.3885714 L7.13142857,47.36 C4.38857143,42.9714286 2.74285714,37.6685714 2.74285714,32 C2.92571429,15.9085714 15.9085714,2.74285714 32,2.74285714 Z" id="Shape"></path>
        </g>
    </g>
</svg>